<svg width="67" height="8" viewBox="0 0 67 8" xmlns="http://www.w3.org/2000/svg"><path d="M1.184 3.676H.728V7.44h.456zM.956 1.992a.324.324 0 0 0-.324.332c0 .184.14.324.324.324s.328-.14.328-.324a.328.328 0 0 0-.328-.332zm3.476 1.624c-.52 0-1.048.216-1.344.72v-.66h-.452V7.44h.456V5.296c0-.74.552-1.248 1.26-1.248.768 0 1.208.464 1.208 1.224V7.44h.456V5.132c0-.932-.64-1.516-1.584-1.516zm6.172.06h-.48l-1.44 3.312-1.432-3.312h-.496L8.42 7.448h.524zm1.32 0h-.456V7.44h.456zm-.228-1.684a.324.324 0 0 0-.324.332c0 .184.14.324.324.324s.328-.14.328-.324a.328.328 0 0 0-.328-.332zm4.228 1.684h-1.736V2.448h-.456v1.228h-.864v.416h.864v2.06c0 .912.472 1.348 1.256 1.348a1.68 1.68 0 0 0 1.092-.376l-.216-.34c-.22.176-.516.288-.84.288-.5 0-.836-.292-.836-.928V4.092h1.736zm4.572 0h-.452V4.4c-.304-.468-.808-.784-1.492-.784-1.056 0-1.88.824-1.88 1.944s.824 1.94 1.88 1.94c.684 0 1.188-.312 1.492-.784v.724h.452zm-1.892.368c.852 0 1.464.652 1.464 1.516s-.612 1.512-1.464 1.512c-.856 0-1.468-.664-1.468-1.512 0-.852.604-1.516 1.468-1.516zm5.892-.368H22.76V2.448h-.456v1.228h-.864v.416h.864v2.06c0 .912.472 1.348 1.256 1.348a1.68 1.68 0 0 0 1.092-.376l-.216-.34c-.22.176-.516.288-.84.288-.5 0-.836-.292-.836-.928V4.092h1.736zm1.524 0h-.456V7.44h.456zm-.228-1.684a.324.324 0 0 0-.324.332c0 .184.14.324.324.324s.328-.14.328-.324a.328.328 0 0 0-.328-.332zm3.332 1.624c-1.116 0-1.952.836-1.952 1.944s.836 1.94 1.952 1.94 1.96-.832 1.96-1.94-.844-1.944-1.96-1.944zm0 .428c.848 0 1.492.64 1.492 1.516s-.644 1.512-1.492 1.512c-.844 0-1.488-.636-1.488-1.512s.644-1.516 1.488-1.516zm4.912-.428c-.52 0-1.048.216-1.344.72v-.66h-.452V7.44h.456V5.296c0-.74.552-1.248 1.26-1.248.768 0 1.208.464 1.208 1.224V7.44h.456V5.132c0-.932-.64-1.516-1.584-1.516zm5.7.424c-.34-.244-.88-.424-1.476-.424-.868 0-1.464.412-1.464 1.104 0 .536.368.908 1.22 1.004l.484.052c.58.064.868.276.868.624 0 .472-.468.704-1.148.704-.648 0-1.048-.196-1.34-.424l-.212.34c.436.332 1 .48 1.548.48.968 0 1.62-.416 1.62-1.128 0-.596-.452-.92-1.236-1.012l-.48-.056c-.58-.068-.856-.26-.856-.608 0-.424.412-.68 1-.68.528 0 1.02.196 1.276.376zm6.836-.364h-.452V4.4c-.304-.468-.808-.784-1.492-.784-1.056 0-1.88.824-1.88 1.944s.824 1.94 1.88 1.94c.684 0 1.188-.312 1.492-.784v.724h.452zm-1.892.368c.852 0 1.464.652 1.464 1.516s-.612 1.512-1.464 1.512c-.856 0-1.468-.664-1.468-1.512 0-.852.604-1.516 1.468-1.516zm5.14-.428c-.52 0-1.048.216-1.344.72v-.66h-.452V7.44h.456V5.296c0-.74.552-1.248 1.26-1.248.768 0 1.208.464 1.208 1.224V7.44h.456V5.132c0-.932-.64-1.516-1.584-1.516zm4.576 0c-1.056 0-1.88.824-1.88 1.944s.824 1.94 1.88 1.94c.684 0 1.188-.312 1.492-.784v.724h.452V1.68h-.452V4.4c-.304-.468-.808-.784-1.492-.784zm.052.428c.852 0 1.464.652 1.464 1.516s-.612 1.512-1.464 1.512c-.856 0-1.468-.664-1.468-1.512 0-.852.604-1.516 1.468-1.516z"/></svg>